<mxfile host="65bd71144e">
    <diagram id="3cDbCIeL_OcfJUDCpYHW" name="Page-1">
        <mxGraphModel dx="1425" dy="680" grid="1" gridSize="10" guides="1" tooltips="1" connect="1" arrows="1" fold="1" page="1" pageScale="1" pageWidth="827" pageHeight="1169" math="0" shadow="0">
            <root>
                <mxCell id="0"/>
                <mxCell id="1" parent="0"/>
                <mxCell id="121" value="" style="rounded=0;whiteSpace=wrap;html=1;fontSize=15;strokeWidth=2;fillColor=#f8cecc;strokeColor=#b85450;" parent="1" vertex="1">
                    <mxGeometry x="-90" y="1130" width="1190" height="790" as="geometry"/>
                </mxCell>
                <mxCell id="99" value="" style="rounded=0;whiteSpace=wrap;html=1;fontSize=15;strokeWidth=2;fillColor=#dae8fc;strokeColor=#6c8ebf;" parent="1" vertex="1">
                    <mxGeometry x="-88" y="220" width="1190" height="880" as="geometry"/>
                </mxCell>
                <mxCell id="5" value="&lt;font style=&quot;font-size: 15px&quot;&gt;南医大对接流程&lt;/font&gt;" style="rounded=0;whiteSpace=wrap;html=1;strokeWidth=2;fillColor=#f5f5f5;strokeColor=#666666;fontColor=#333333;" parent="1" vertex="1">
                    <mxGeometry x="-90" y="10" width="1180" height="60" as="geometry"/>
                </mxCell>
                <mxCell id="6" value="&lt;span style=&quot;font-size: 17px&quot;&gt;南医大趋菱系统&lt;/span&gt;&lt;br&gt;" style="shape=umlLifeline;perimeter=lifelinePerimeter;whiteSpace=wrap;html=1;container=1;collapsible=0;recursiveResize=0;outlineConnect=0;strokeWidth=2;fillColor=#f5f5f5;strokeColor=#666666;fontColor=#333333;" parent="1" vertex="1">
                    <mxGeometry x="-90" y="150" width="270" height="1990" as="geometry"/>
                </mxCell>
                <mxCell id="9" value="" style="html=1;points=[];perimeter=orthogonalPerimeter;strokeWidth=2;" parent="6" vertex="1">
                    <mxGeometry x="120" y="100" width="30" height="80" as="geometry"/>
                </mxCell>
                <mxCell id="100" value="" style="html=1;points=[];perimeter=orthogonalPerimeter;strokeWidth=2;" parent="6" vertex="1">
                    <mxGeometry x="120" y="770" width="30" height="80" as="geometry"/>
                </mxCell>
                <mxCell id="107" value="" style="html=1;points=[];perimeter=orthogonalPerimeter;strokeWidth=2;" parent="6" vertex="1">
                    <mxGeometry x="120" y="1150" width="30" height="280" as="geometry"/>
                </mxCell>
                <mxCell id="109" value="根据科室之间的容积切分出库单" style="edgeStyle=orthogonalEdgeStyle;html=1;align=left;spacingLeft=2;endArrow=block;rounded=0;fontSize=17;strokeWidth=2;" parent="6" edge="1">
                    <mxGeometry relative="1" as="geometry">
                        <mxPoint x="150" y="1160" as="sourcePoint"/>
                        <Array as="points">
                            <mxPoint x="150" y="1160"/>
                            <mxPoint x="221" y="1160"/>
                            <mxPoint x="221" y="1210"/>
                        </Array>
                        <mxPoint x="151" y="1210" as="targetPoint"/>
                    </mxGeometry>
                </mxCell>
                <mxCell id="114" value="" style="html=1;points=[];perimeter=orthogonalPerimeter;strokeWidth=2;" parent="6" vertex="1">
                    <mxGeometry x="120" y="1650" width="30" height="74" as="geometry"/>
                </mxCell>
                <mxCell id="124" value="" style="html=1;points=[];perimeter=orthogonalPerimeter;strokeWidth=2;" parent="6" vertex="1">
                    <mxGeometry x="120" y="1010" width="30" height="80" as="geometry"/>
                </mxCell>
                <mxCell id="125" value="&lt;font style=&quot;font-size: 17px&quot;&gt;通过授权AK/SK进行认证&lt;/font&gt;" style="html=1;verticalAlign=bottom;endArrow=block;strokeWidth=2;entryX=0.033;entryY=0.1;entryDx=0;entryDy=0;entryPerimeter=0;" parent="6" target="164" edge="1">
                    <mxGeometry width="80" relative="1" as="geometry">
                        <mxPoint x="150" y="1020" as="sourcePoint"/>
                        <mxPoint x="464" y="1020" as="targetPoint"/>
                    </mxGeometry>
                </mxCell>
                <mxCell id="126" value="返回bearer token" style="html=1;verticalAlign=bottom;endArrow=open;dashed=1;endSize=8;fontSize=17;strokeWidth=2;entryX=1;entryY=0.763;entryDx=0;entryDy=0;entryPerimeter=0;exitX=0;exitY=0.763;exitDx=0;exitDy=0;exitPerimeter=0;" parent="6" source="164" edge="1">
                    <mxGeometry relative="1" as="geometry">
                        <mxPoint x="464" y="1071.04" as="sourcePoint"/>
                        <mxPoint x="150" y="1071.04" as="targetPoint"/>
                    </mxGeometry>
                </mxCell>
                <mxCell id="15" value="&lt;font style=&quot;font-size: 17px&quot;&gt;坎德拉医疗系统&lt;/font&gt;" style="shape=umlLifeline;perimeter=lifelinePerimeter;whiteSpace=wrap;html=1;container=1;collapsible=0;recursiveResize=0;outlineConnect=0;strokeWidth=2;fillColor=#e1d5e7;strokeColor=#9673a6;" parent="1" vertex="1">
                    <mxGeometry x="650" y="150" width="270" height="1990" as="geometry"/>
                </mxCell>
                <mxCell id="18" value="" style="html=1;points=[];perimeter=orthogonalPerimeter;fontSize=17;strokeWidth=2;" parent="15" vertex="1">
                    <mxGeometry x="120" y="170" width="30" height="110" as="geometry"/>
                </mxCell>
                <mxCell id="19" value="同步外部科室" style="edgeStyle=orthogonalEdgeStyle;html=1;align=left;spacingLeft=2;endArrow=block;rounded=0;fontSize=17;strokeWidth=2;" parent="15" target="18" edge="1">
                    <mxGeometry relative="1" as="geometry">
                        <mxPoint x="150" y="190" as="sourcePoint"/>
                        <Array as="points">
                            <mxPoint x="220" y="190"/>
                            <mxPoint x="220" y="260"/>
                        </Array>
                        <mxPoint x="550" y="160" as="targetPoint"/>
                    </mxGeometry>
                </mxCell>
                <mxCell id="101" value="" style="html=1;points=[];perimeter=orthogonalPerimeter;fontSize=17;strokeWidth=2;" parent="15" vertex="1">
                    <mxGeometry x="120" y="810" width="30" height="110" as="geometry"/>
                </mxCell>
                <mxCell id="104" value="修改科室之间的配送格口大小" style="edgeStyle=orthogonalEdgeStyle;html=1;align=left;spacingLeft=2;endArrow=block;rounded=0;fontSize=17;strokeWidth=2;" parent="15" edge="1">
                    <mxGeometry relative="1" as="geometry">
                        <mxPoint x="150" y="860" as="sourcePoint"/>
                        <Array as="points">
                            <mxPoint x="150" y="860"/>
                            <mxPoint x="221" y="860"/>
                            <mxPoint x="221" y="910"/>
                        </Array>
                        <mxPoint x="151" y="910" as="targetPoint"/>
                    </mxGeometry>
                </mxCell>
                <mxCell id="108" value="" style="html=1;points=[];perimeter=orthogonalPerimeter;fontSize=17;strokeWidth=2;" parent="15" vertex="1">
                    <mxGeometry x="120" y="1170" width="30" height="320" as="geometry"/>
                </mxCell>
                <mxCell id="111" value="新增单据信息" style="edgeStyle=orthogonalEdgeStyle;html=1;align=left;spacingLeft=2;endArrow=block;rounded=0;fontSize=17;strokeWidth=2;" parent="15" edge="1">
                    <mxGeometry relative="1" as="geometry">
                        <mxPoint x="150" y="1270" as="sourcePoint"/>
                        <Array as="points">
                            <mxPoint x="150" y="1270"/>
                            <mxPoint x="221" y="1270"/>
                            <mxPoint x="221" y="1320"/>
                        </Array>
                        <mxPoint x="151" y="1320" as="targetPoint"/>
                    </mxGeometry>
                </mxCell>
                <mxCell id="113" value="呼叫机器人前往发货科室" style="edgeStyle=orthogonalEdgeStyle;html=1;align=left;spacingLeft=2;endArrow=block;rounded=0;fontSize=17;strokeWidth=2;" parent="15" edge="1">
                    <mxGeometry relative="1" as="geometry">
                        <mxPoint x="150" y="1420" as="sourcePoint"/>
                        <Array as="points">
                            <mxPoint x="150" y="1420"/>
                            <mxPoint x="221" y="1420"/>
                            <mxPoint x="221" y="1470"/>
                        </Array>
                        <mxPoint x="151" y="1470" as="targetPoint"/>
                    </mxGeometry>
                </mxCell>
                <mxCell id="115" value="" style="html=1;points=[];perimeter=orthogonalPerimeter;strokeWidth=2;" parent="15" vertex="1">
                    <mxGeometry x="120" y="1524" width="30" height="166" as="geometry"/>
                </mxCell>
                <mxCell id="181" value="" style="endArrow=classic;html=1;fontSize=15;strokeWidth=2;exitX=1.033;exitY=0.888;exitDx=0;exitDy=0;exitPerimeter=0;entryX=0;entryY=0.467;entryDx=0;entryDy=0;entryPerimeter=0;" parent="15" edge="1">
                    <mxGeometry width="50" height="50" relative="1" as="geometry">
                        <mxPoint x="-220.01000000000022" y="840.0699999999999" as="sourcePoint"/>
                        <mxPoint x="120" y="840" as="targetPoint"/>
                    </mxGeometry>
                </mxCell>
                <mxCell id="182" value="&lt;span style=&quot;font-size: 17px&quot;&gt;发送外部物品信息&lt;/span&gt;" style="edgeLabel;html=1;align=center;verticalAlign=middle;resizable=0;points=[];fontSize=15;" parent="181" vertex="1" connectable="0">
                    <mxGeometry x="-0.0647" y="-2" relative="1" as="geometry">
                        <mxPoint x="1" y="-21" as="offset"/>
                    </mxGeometry>
                </mxCell>
                <mxCell id="183" value="" style="html=1;points=[];perimeter=orthogonalPerimeter;fontSize=17;strokeWidth=2;" parent="15" vertex="1">
                    <mxGeometry x="120" y="1000" width="30" height="110" as="geometry"/>
                </mxCell>
                <mxCell id="184" value="&lt;span style=&quot;font-size: 17px&quot;&gt;新增业务单据信息&lt;br&gt;&lt;/span&gt;" style="html=1;verticalAlign=bottom;endArrow=block;strokeWidth=2;exitX=1;exitY=0.809;exitDx=0;exitDy=0;exitPerimeter=0;entryX=-0.167;entryY=0.414;entryDx=0;entryDy=0;entryPerimeter=0;" parent="15" edge="1">
                    <mxGeometry width="80" relative="1" as="geometry">
                        <mxPoint x="-220" y="1261.0699999999997" as="sourcePoint"/>
                        <mxPoint x="113.98999999999978" y="1260" as="targetPoint"/>
                        <Array as="points">
                            <mxPoint x="-120" y="1261.08"/>
                        </Array>
                    </mxGeometry>
                </mxCell>
                <mxCell id="185" value="&lt;span style=&quot;font-size: 17px&quot;&gt;执行业务单据&lt;br&gt;&lt;/span&gt;" style="html=1;verticalAlign=bottom;endArrow=block;strokeWidth=2;exitX=1;exitY=0.809;exitDx=0;exitDy=0;exitPerimeter=0;entryX=0;entryY=0.75;entryDx=0;entryDy=0;entryPerimeter=0;" parent="15" target="108" edge="1">
                    <mxGeometry width="80" relative="1" as="geometry">
                        <mxPoint x="-220" y="1411.0699999999997" as="sourcePoint"/>
                        <mxPoint x="114" y="1410" as="targetPoint"/>
                        <Array as="points">
                            <mxPoint x="-120" y="1411.08"/>
                        </Array>
                    </mxGeometry>
                </mxCell>
                <mxCell id="189" value="订单状态变更" style="edgeStyle=orthogonalEdgeStyle;html=1;align=left;spacingLeft=2;endArrow=block;rounded=0;fontSize=17;strokeWidth=2;" parent="15" edge="1">
                    <mxGeometry relative="1" as="geometry">
                        <mxPoint x="150" y="1539" as="sourcePoint"/>
                        <Array as="points">
                            <mxPoint x="150" y="1539"/>
                            <mxPoint x="221" y="1539"/>
                            <mxPoint x="221" y="1589"/>
                        </Array>
                        <mxPoint x="151" y="1589" as="targetPoint"/>
                    </mxGeometry>
                </mxCell>
                <mxCell id="192" value="发送mqtt" style="edgeStyle=orthogonalEdgeStyle;html=1;align=left;spacingLeft=2;endArrow=block;rounded=0;fontSize=17;strokeWidth=2;" parent="15" edge="1">
                    <mxGeometry relative="1" as="geometry">
                        <mxPoint x="150" y="1610" as="sourcePoint"/>
                        <Array as="points">
                            <mxPoint x="150" y="1610"/>
                            <mxPoint x="221" y="1610"/>
                            <mxPoint x="221" y="1660"/>
                        </Array>
                        <mxPoint x="151" y="1660" as="targetPoint"/>
                    </mxGeometry>
                </mxCell>
                <mxCell id="85" value="返回外部科室列表" style="html=1;verticalAlign=bottom;endArrow=open;dashed=1;endSize=8;fontSize=17;strokeWidth=2;" parent="1" source="9" target="159" edge="1">
                    <mxGeometry relative="1" as="geometry">
                        <mxPoint x="344" y="360" as="sourcePoint"/>
                        <mxPoint x="360" y="320" as="targetPoint"/>
                        <Array as="points">
                            <mxPoint x="240" y="320"/>
                        </Array>
                    </mxGeometry>
                </mxCell>
                <mxCell id="87" value="" style="html=1;points=[];perimeter=orthogonalPerimeter;strokeWidth=2;" parent="1" vertex="1">
                    <mxGeometry x="30" y="500" width="30" height="80" as="geometry"/>
                </mxCell>
                <mxCell id="88" value="" style="html=1;points=[];perimeter=orthogonalPerimeter;fontSize=17;strokeWidth=2;" parent="1" vertex="1">
                    <mxGeometry x="770" y="560" width="30" height="110" as="geometry"/>
                </mxCell>
                <mxCell id="89" value="同步外部分类" style="edgeStyle=orthogonalEdgeStyle;html=1;align=left;spacingLeft=2;endArrow=block;rounded=0;fontSize=17;strokeWidth=2;" parent="1" target="88" edge="1">
                    <mxGeometry relative="1" as="geometry">
                        <mxPoint x="799" y="590" as="sourcePoint"/>
                        <Array as="points">
                            <mxPoint x="799" y="590"/>
                            <mxPoint x="870" y="590"/>
                            <mxPoint x="870" y="640"/>
                        </Array>
                        <mxPoint x="550" y="410" as="targetPoint"/>
                    </mxGeometry>
                </mxCell>
                <mxCell id="91" value="&lt;span style=&quot;font-size: 17px&quot;&gt;查询外部分类视图&lt;/span&gt;" style="html=1;verticalAlign=bottom;endArrow=block;strokeWidth=2;exitX=0;exitY=0.18;exitDx=0;exitDy=0;exitPerimeter=0;" parent="1" source="174" edge="1">
                    <mxGeometry width="80" relative="1" as="geometry">
                        <mxPoint x="70" y="570" as="sourcePoint"/>
                        <mxPoint x="60" y="520" as="targetPoint"/>
                        <Array as="points">
                            <mxPoint x="100" y="520"/>
                        </Array>
                    </mxGeometry>
                </mxCell>
                <mxCell id="92" value="返回外部分类列表" style="html=1;verticalAlign=bottom;endArrow=open;dashed=1;endSize=8;fontSize=17;strokeWidth=2;entryX=0.033;entryY=0.649;entryDx=0;entryDy=0;entryPerimeter=0;exitX=1.133;exitY=0.8;exitDx=0;exitDy=0;exitPerimeter=0;" parent="1" source="87" target="174" edge="1">
                    <mxGeometry relative="1" as="geometry">
                        <mxPoint x="344" y="610" as="sourcePoint"/>
                        <mxPoint x="30" y="610" as="targetPoint"/>
                    </mxGeometry>
                </mxCell>
                <mxCell id="93" value="" style="html=1;points=[];perimeter=orthogonalPerimeter;strokeWidth=2;" parent="1" vertex="1">
                    <mxGeometry x="29" y="701" width="30" height="80" as="geometry"/>
                </mxCell>
                <mxCell id="94" value="" style="html=1;points=[];perimeter=orthogonalPerimeter;fontSize=17;strokeWidth=2;" parent="1" vertex="1">
                    <mxGeometry x="769" y="760" width="30" height="111" as="geometry"/>
                </mxCell>
                <mxCell id="95" value="同步外部&lt;span style=&quot;text-align: center&quot;&gt;物品&lt;/span&gt;" style="edgeStyle=orthogonalEdgeStyle;html=1;align=left;spacingLeft=2;endArrow=block;rounded=0;fontSize=17;strokeWidth=2;" parent="1" target="94" edge="1">
                    <mxGeometry relative="1" as="geometry">
                        <mxPoint x="798" y="791" as="sourcePoint"/>
                        <Array as="points">
                            <mxPoint x="798" y="791"/>
                            <mxPoint x="869" y="791"/>
                            <mxPoint x="869" y="841"/>
                        </Array>
                        <mxPoint x="549" y="611" as="targetPoint"/>
                    </mxGeometry>
                </mxCell>
                <mxCell id="96" value="&lt;span style=&quot;font-size: 17px&quot;&gt;查询外部物品视图&lt;/span&gt;" style="html=1;verticalAlign=bottom;endArrow=block;strokeWidth=2;exitX=0.033;exitY=0.21;exitDx=0;exitDy=0;exitPerimeter=0;" parent="1" source="177" edge="1">
                    <mxGeometry width="80" relative="1" as="geometry">
                        <mxPoint x="69" y="771" as="sourcePoint"/>
                        <mxPoint x="59" y="721" as="targetPoint"/>
                        <Array as="points">
                            <mxPoint x="99" y="721"/>
                        </Array>
                    </mxGeometry>
                </mxCell>
                <mxCell id="97" value="返回外部物品列表" style="html=1;verticalAlign=bottom;endArrow=open;dashed=1;endSize=8;fontSize=17;strokeWidth=2;entryX=-0.067;entryY=0.65;entryDx=0;entryDy=0;entryPerimeter=0;exitX=1.133;exitY=0.8;exitDx=0;exitDy=0;exitPerimeter=0;" parent="1" source="93" target="177" edge="1">
                    <mxGeometry relative="1" as="geometry">
                        <mxPoint x="343" y="811" as="sourcePoint"/>
                        <mxPoint x="29" y="811" as="targetPoint"/>
                    </mxGeometry>
                </mxCell>
                <mxCell id="110" value="&lt;span style=&quot;font-size: 17px&quot;&gt;1.根据拆分出的&lt;/span&gt;&lt;span style=&quot;font-size: 17px ; text-align: left&quot;&gt;出库单分别&lt;br&gt;&lt;/span&gt;&lt;span style=&quot;font-size: 17px&quot;&gt;调用新增业务单据信息接口&lt;br&gt;&lt;/span&gt;" style="html=1;verticalAlign=bottom;endArrow=block;strokeWidth=2;exitX=1;exitY=0.809;exitDx=0;exitDy=0;exitPerimeter=0;entryX=-0.167;entryY=0.414;entryDx=0;entryDy=0;entryPerimeter=0;" parent="1" target="161" edge="1">
                    <mxGeometry width="80" relative="1" as="geometry">
                        <mxPoint x="60" y="1416.9899999999998" as="sourcePoint"/>
                        <mxPoint x="360" y="1417" as="targetPoint"/>
                        <Array as="points">
                            <mxPoint x="160" y="1417"/>
                        </Array>
                    </mxGeometry>
                </mxCell>
                <mxCell id="112" value="&lt;span style=&quot;font-size: 17px&quot;&gt;2.调用执行业务单据接口&lt;br&gt;&lt;/span&gt;" style="html=1;verticalAlign=bottom;endArrow=block;strokeWidth=2;exitX=1;exitY=0.809;exitDx=0;exitDy=0;exitPerimeter=0;entryX=0.033;entryY=0.914;entryDx=0;entryDy=0;entryPerimeter=0;" parent="1" target="161" edge="1">
                    <mxGeometry width="80" relative="1" as="geometry">
                        <mxPoint x="60" y="1556.9899999999998" as="sourcePoint"/>
                        <mxPoint x="360" y="1557" as="targetPoint"/>
                        <Array as="points">
                            <mxPoint x="160" y="1557"/>
                        </Array>
                    </mxGeometry>
                </mxCell>
                <mxCell id="117" value="配送单/退回单&lt;br&gt;&lt;div&gt;SUBMITTED(&quot;已下单&quot;)&lt;/div&gt;&lt;div&gt;WAIT_SHIPMENT(&quot;等待装箱&quot;)&lt;/div&gt;&lt;div&gt;PENDING(&quot;待配送&quot;)&lt;/div&gt;&lt;div&gt;CONFIRMED(&quot;已确认&quot;)&lt;/div&gt;&lt;div&gt;DEPARTED(&quot;已出发&quot;)&lt;/div&gt;&lt;div&gt;ARRIVED(&quot;已到达&quot;)&lt;/div&gt;&lt;div&gt;FAILED(&quot;配送失败&quot;)&lt;/div&gt;&lt;div&gt;EXPIRED(&quot;超时&quot;)&lt;/div&gt;&lt;div&gt;MANUAL_PROCESSED(&quot;人工处理&quot;)&lt;/div&gt;&lt;div&gt;COLLECTED(&quot;已取件&quot;)&lt;/div&gt;&lt;div&gt;CANCELLED(&quot;已取消&quot;)&lt;/div&gt;&lt;div&gt;ABANDONED(&quot;放弃&quot;)&lt;/div&gt;&lt;div&gt;WITHDRAWN(&quot;撤回&quot;)&lt;/div&gt;" style="rounded=0;whiteSpace=wrap;html=1;fontSize=17;strokeWidth=2;fillColor=#b1ddf0;strokeColor=#10739e;" parent="1" vertex="1">
                    <mxGeometry x="1120" y="1550" width="370" height="300" as="geometry"/>
                </mxCell>
                <mxCell id="118" value="&lt;span style=&quot;font-size: 17px&quot;&gt;坎德拉通过视图获取&lt;/span&gt;&lt;span style=&quot;font-size: 17px ; color: rgb(51 , 51 , 51)&quot;&gt;南医大趋菱系统基础数据&lt;/span&gt;" style="rounded=0;whiteSpace=wrap;html=1;fontSize=15;strokeWidth=2;fillColor=#dae8fc;strokeColor=#6c8ebf;" parent="1" vertex="1">
                    <mxGeometry x="-490" y="630" width="350" height="100" as="geometry"/>
                </mxCell>
                <mxCell id="119" value="" style="shape=flexArrow;endArrow=classic;html=1;fontSize=15;exitX=1;exitY=0.5;exitDx=0;exitDy=0;fillColor=#dae8fc;strokeColor=#6c8ebf;" parent="1" source="118" target="99" edge="1">
                    <mxGeometry width="50" height="50" relative="1" as="geometry">
                        <mxPoint x="-110" y="730" as="sourcePoint"/>
                        <mxPoint x="-60" y="680" as="targetPoint"/>
                    </mxGeometry>
                </mxCell>
                <mxCell id="122" value="配送业务流程" style="rounded=0;whiteSpace=wrap;html=1;fontSize=15;strokeWidth=2;fillColor=#f8cecc;strokeColor=#b85450;" parent="1" vertex="1">
                    <mxGeometry x="-400" y="1450" width="220" height="85" as="geometry"/>
                </mxCell>
                <mxCell id="123" value="" style="shape=flexArrow;endArrow=classic;html=1;fontSize=15;exitX=1;exitY=0.5;exitDx=0;exitDy=0;fillColor=#f8cecc;strokeColor=#b85450;" parent="1" source="122" edge="1">
                    <mxGeometry width="50" height="50" relative="1" as="geometry">
                        <mxPoint x="-170" y="1628.23" as="sourcePoint"/>
                        <mxPoint x="-90" y="1493" as="targetPoint"/>
                    </mxGeometry>
                </mxCell>
                <mxCell id="158" value="&lt;span style=&quot;font-size: 17px&quot;&gt;内网前置机服务&lt;/span&gt;" style="shape=umlLifeline;perimeter=lifelinePerimeter;whiteSpace=wrap;html=1;container=1;collapsible=0;recursiveResize=0;outlineConnect=0;strokeWidth=2;fillColor=#f5f5f5;strokeColor=#666666;fontColor=#333333;" parent="1" vertex="1">
                    <mxGeometry x="279" y="150" width="270" height="1980" as="geometry"/>
                </mxCell>
                <mxCell id="159" value="" style="html=1;points=[];perimeter=orthogonalPerimeter;strokeWidth=2;" parent="158" vertex="1">
                    <mxGeometry x="120" y="100" width="30" height="100" as="geometry"/>
                </mxCell>
                <mxCell id="160" value="" style="html=1;points=[];perimeter=orthogonalPerimeter;strokeWidth=2;" parent="158" vertex="1">
                    <mxGeometry x="120" y="770" width="30" height="80" as="geometry"/>
                </mxCell>
                <mxCell id="161" value="" style="html=1;points=[];perimeter=orthogonalPerimeter;strokeWidth=2;" parent="158" vertex="1">
                    <mxGeometry x="120" y="1150" width="30" height="280" as="geometry"/>
                </mxCell>
                <mxCell id="163" value="" style="html=1;points=[];perimeter=orthogonalPerimeter;strokeWidth=2;" parent="158" vertex="1">
                    <mxGeometry x="120" y="1640" width="30" height="74" as="geometry"/>
                </mxCell>
                <mxCell id="164" value="" style="html=1;points=[];perimeter=orthogonalPerimeter;strokeWidth=2;" parent="158" vertex="1">
                    <mxGeometry x="120" y="1010" width="30" height="80" as="geometry"/>
                </mxCell>
                <mxCell id="165" value="&lt;font style=&quot;font-size: 17px&quot;&gt;通过授权AK/SK进行认证&lt;/font&gt;" style="html=1;verticalAlign=bottom;endArrow=block;strokeWidth=2;entryX=-0.1;entryY=0.191;entryDx=0;entryDy=0;entryPerimeter=0;" parent="158" target="183" edge="1">
                    <mxGeometry width="80" relative="1" as="geometry">
                        <mxPoint x="150" y="1020" as="sourcePoint"/>
                        <mxPoint x="464" y="1020" as="targetPoint"/>
                    </mxGeometry>
                </mxCell>
                <mxCell id="166" value="返回bearer token" style="html=1;verticalAlign=bottom;endArrow=open;dashed=1;endSize=8;fontSize=17;strokeWidth=2;entryX=1;entryY=0.763;entryDx=0;entryDy=0;entryPerimeter=0;exitX=-0.067;exitY=0.655;exitDx=0;exitDy=0;exitPerimeter=0;" parent="158" source="183" edge="1">
                    <mxGeometry relative="1" as="geometry">
                        <mxPoint x="464" y="1071.04" as="sourcePoint"/>
                        <mxPoint x="150" y="1071.04" as="targetPoint"/>
                    </mxGeometry>
                </mxCell>
                <mxCell id="174" value="" style="html=1;points=[];perimeter=orthogonalPerimeter;strokeWidth=2;" parent="158" vertex="1">
                    <mxGeometry x="120" y="350" width="30" height="100" as="geometry"/>
                </mxCell>
                <mxCell id="177" value="" style="html=1;points=[];perimeter=orthogonalPerimeter;strokeWidth=2;" parent="158" vertex="1">
                    <mxGeometry x="120" y="550" width="30" height="100" as="geometry"/>
                </mxCell>
                <mxCell id="180" value="&lt;span style=&quot;font-size: 17px&quot;&gt;查询科室之间的配送容积视图&lt;/span&gt;" style="html=1;verticalAlign=bottom;endArrow=block;strokeWidth=2;" parent="158" target="100" edge="1">
                    <mxGeometry width="80" relative="1" as="geometry">
                        <mxPoint x="120" y="790" as="sourcePoint"/>
                        <mxPoint x="-180" y="790" as="targetPoint"/>
                        <Array as="points">
                            <mxPoint x="-140" y="790"/>
                        </Array>
                    </mxGeometry>
                </mxCell>
                <mxCell id="168" value="" style="endArrow=classic;html=1;fontSize=15;strokeWidth=2;exitX=1.033;exitY=0.888;exitDx=0;exitDy=0;exitPerimeter=0;" parent="1" source="159" edge="1">
                    <mxGeometry width="50" height="50" relative="1" as="geometry">
                        <mxPoint x="640" y="120" as="sourcePoint"/>
                        <mxPoint x="770" y="339" as="targetPoint"/>
                    </mxGeometry>
                </mxCell>
                <mxCell id="171" value="&lt;span style=&quot;font-size: 17px&quot;&gt;发送外部科室信息&lt;/span&gt;" style="edgeLabel;html=1;align=center;verticalAlign=middle;resizable=0;points=[];fontSize=15;" parent="168" vertex="1" connectable="0">
                    <mxGeometry x="-0.0647" y="-2" relative="1" as="geometry">
                        <mxPoint x="1" y="-21" as="offset"/>
                    </mxGeometry>
                </mxCell>
                <mxCell id="172" value="" style="endArrow=classic;html=1;fontSize=15;strokeWidth=2;exitX=-0.033;exitY=0.26;exitDx=0;exitDy=0;exitPerimeter=0;" parent="1" source="159" edge="1">
                    <mxGeometry width="50" height="50" relative="1" as="geometry">
                        <mxPoint x="59.99999999999977" y="390.06999999999994" as="sourcePoint"/>
                        <mxPoint x="60" y="276" as="targetPoint"/>
                    </mxGeometry>
                </mxCell>
                <mxCell id="173" value="&lt;span style=&quot;font-size: 17px&quot;&gt;查询外部科室视图&lt;/span&gt;" style="edgeLabel;html=1;align=center;verticalAlign=middle;resizable=0;points=[];fontSize=15;" parent="172" vertex="1" connectable="0">
                    <mxGeometry x="-0.0647" y="-2" relative="1" as="geometry">
                        <mxPoint x="-10" y="-15" as="offset"/>
                    </mxGeometry>
                </mxCell>
                <mxCell id="175" value="" style="endArrow=classic;html=1;fontSize=15;strokeWidth=2;exitX=1.033;exitY=0.888;exitDx=0;exitDy=0;exitPerimeter=0;entryX=0;entryY=0.467;entryDx=0;entryDy=0;entryPerimeter=0;" parent="1" edge="1">
                    <mxGeometry width="50" height="50" relative="1" as="geometry">
                        <mxPoint x="429.9899999999998" y="590.0699999999999" as="sourcePoint"/>
                        <mxPoint x="770" y="590" as="targetPoint"/>
                    </mxGeometry>
                </mxCell>
                <mxCell id="176" value="&lt;span style=&quot;font-size: 17px&quot;&gt;发送外部分类信息&lt;/span&gt;" style="edgeLabel;html=1;align=center;verticalAlign=middle;resizable=0;points=[];fontSize=15;" parent="175" vertex="1" connectable="0">
                    <mxGeometry x="-0.0647" y="-2" relative="1" as="geometry">
                        <mxPoint x="1" y="-21" as="offset"/>
                    </mxGeometry>
                </mxCell>
                <mxCell id="178" value="" style="endArrow=classic;html=1;fontSize=15;strokeWidth=2;exitX=1.033;exitY=0.888;exitDx=0;exitDy=0;exitPerimeter=0;entryX=0;entryY=0.467;entryDx=0;entryDy=0;entryPerimeter=0;" parent="1" edge="1">
                    <mxGeometry width="50" height="50" relative="1" as="geometry">
                        <mxPoint x="429.9899999999998" y="785.5699999999999" as="sourcePoint"/>
                        <mxPoint x="770" y="785.5" as="targetPoint"/>
                    </mxGeometry>
                </mxCell>
                <mxCell id="179" value="&lt;span style=&quot;font-size: 17px&quot;&gt;发送外部物品信息&lt;/span&gt;" style="edgeLabel;html=1;align=center;verticalAlign=middle;resizable=0;points=[];fontSize=15;" parent="178" vertex="1" connectable="0">
                    <mxGeometry x="-0.0647" y="-2" relative="1" as="geometry">
                        <mxPoint x="1" y="-21" as="offset"/>
                    </mxGeometry>
                </mxCell>
                <mxCell id="103" value="返回科室之间的配送容积" style="html=1;verticalAlign=bottom;endArrow=open;dashed=1;endSize=8;fontSize=17;strokeWidth=2;exitX=1.133;exitY=0.8;exitDx=0;exitDy=0;exitPerimeter=0;" parent="1" target="160" edge="1">
                    <mxGeometry relative="1" as="geometry">
                        <mxPoint x="60" y="984.5" as="sourcePoint"/>
                        <mxPoint x="356.9999999999998" y="985.44" as="targetPoint"/>
                    </mxGeometry>
                </mxCell>
                <mxCell id="186" value="&lt;span style=&quot;font-size: 17px&quot;&gt;单据信息状态变更回调callback&lt;/span&gt;" style="html=1;verticalAlign=bottom;endArrow=block;strokeWidth=2;" parent="1" edge="1">
                    <mxGeometry width="80" relative="1" as="geometry">
                        <mxPoint x="400" y="1832" as="sourcePoint"/>
                        <mxPoint x="59" y="1832" as="targetPoint"/>
                        <Array as="points">
                            <mxPoint x="140" y="1832"/>
                        </Array>
                    </mxGeometry>
                </mxCell>
                <mxCell id="193" value="&lt;span style=&quot;font-size: 17px&quot;&gt;消费mqtt&lt;br&gt;&lt;/span&gt;" style="html=1;verticalAlign=bottom;endArrow=block;strokeWidth=2;exitX=1;exitY=0.809;exitDx=0;exitDy=0;exitPerimeter=0;entryX=0;entryY=0.75;entryDx=0;entryDy=0;entryPerimeter=0;" parent="1" edge="1">
                    <mxGeometry width="80" relative="1" as="geometry">
                        <mxPoint x="429" y="1821.0699999999997" as="sourcePoint"/>
                        <mxPoint x="769" y="1820" as="targetPoint"/>
                        <Array as="points">
                            <mxPoint x="529" y="1821.08"/>
                        </Array>
                    </mxGeometry>
                </mxCell>
            </root>
        </mxGraphModel>
    </diagram>
</mxfile>